<?xml version="1.0" encoding="UTF-8" standalone="no"?>
<!$ Created with Inkscape (http://www.inkscape.org/) $>

<svg
   width="32"
   height="32"
   viewBox="0 0 32 32"
   version="1.1"
   id="svg5"
   inkscape:version="1.1.1 (3bf5ae0d25, 2021-09-20)"
   sodipodi:docname="favicon.svg"
   xmlns:inkscape="http://www.inkscape.org/namespaces/inkscape"
   xmlns:sodipodi="http://sodipodi.sourceforge.net/DTD/sodipodi-0.dtd"
   xmlns="http://www.w3.org/2000/svg"
   xmlns:svg="http://www.w3.org/2000/svg">
  <sodipodi:namedview
     id="namedview7"
     pagecolor="#505050"
     bordercolor="#eeeeee"
     borderopacity="1"
     inkscape:pageshadow="0"
     inkscape:pageopacity="0"
     inkscape:pagecheckerboard="0"
     inkscape:document-units="px"
     showgrid="false"
     inkscape:snap-bbox="false"
     inkscape:snap-intersection-paths="false"
     inkscape:snap-object-midpoints="true"
     showguides="true"
     inkscape:guide-bbox="true"
     inkscape:snap-global="false"
     inkscape:zoom="11.313709"
     inkscape:cx="9.9436891"
     inkscape:cy="18.605747"
     inkscape:window-width="1366"
     inkscape:window-height="705"
     inkscape:window-x="-8"
     inkscape:window-y="-8"
     inkscape:window-maximized="1"
     inkscape:current-layer="layer1" />
  <defs
     id="defs2" />
  <g
     inkscape:groupmode="layer"
     id="layer2"
     inkscape:label="Capa 0">
    <path
       style="fill:none;stroke:#000000;stroke-width:1px;stroke-linecap:butt;stroke-linejoin:miter;stroke-opacity:1"
       d="M 16.865991,31.147787 19.492847,22.195033 14.6144,18.764037 19.332019,13.510325 16.490725,6.6483333 21.067066,6.1673065 16.581358,1.2396561"
       id="path4012" />
  </g>
  <g
     inkscape:groupmode="layer"
     id="layer4"
     inkscape:label="Capa 3">
    <circle
       style="fill:#e2e9f7;fill-opacity:1;stroke-width:1.53974"
       id="path31"
       cx="16"
       cy="16.15163"
       r="16" />
  </g>
  <g
     inkscape:groupmode="layer"
     id="layer3"
     inkscape:label="Capa 2">
    <circle
       style="fill:#27282a;fill-opacity:1;stroke-width:1.44351"
       id="path31-8"
       cx="16"
       cy="16.15163"
       r="15" />
    <path
       style="fill:none;stroke:#201808;stroke-width:1px;stroke-linecap:butt;stroke-linejoin:miter;stroke-opacity:1"
       d="m 17.259507,31.096013 2.582126,-9.166145 -4.70167,-3.165831 4.540842,-5.430489 L 16.751123,6.82511 21.592629,6.3440832 16.753368,1.2396561"
       id="path4127"
       sodipodi:nodetypes="ccccccc" />
  </g>
  <g
     inkscape:label="Capa 1"
     inkscape:groupmode="layer"
     id="layer1">
    <path
       style="fill:none;stroke:#291406;stroke-width:0.1;stroke-linecap:butt;stroke-linejoin:miter;stroke-miterlimit:4;stroke-dasharray:none;stroke-opacity:1"
       d="M 13.945122,31.012985 16.571978,22.060231 11.693531,18.629235 16.41115,13.375523 13.569856,6.5135315"
       id="path2134" />
    <path
       style="fill:none;stroke:#854114;stroke-width:0.2;stroke-linecap:butt;stroke-linejoin:miter;stroke-miterlimit:4;stroke-dasharray:none;stroke-opacity:1"
       d="M 16.865991,31.147787 19.492847,22.195033 14.6144,18.764037 19.332019,13.510325 16.490725,6.6483333"
       id="path2134-3" />
    <path
       style="fill:none;stroke:#854114;stroke-width:0.220065;stroke-linecap:butt;stroke-linejoin:miter;stroke-miterlimit:4;stroke-dasharray:none;stroke-opacity:1"
       d="M 16.910721,31.007625 13.994208,30.844174"
       id="path2340" />
    <path
       style="fill:#854114;fill-opacity:1;stroke:#854114;stroke-width:0.533;stroke-miterlimit:4;stroke-dasharray:none;stroke-opacity:1"
       d="m 15.578125,30.811038 c -0.661719,-0.03936 -1.253625,-0.07623 -1.315347,-0.08193 l -0.112222,-0.01036 1.278534,-4.356874 c 0.994059,-3.387463 1.269343,-4.362194 1.237222,-4.380789 -0.125395,-0.07259 -4.761546,-3.34769 -4.769069,-3.368997 -0.005,-0.01403 0.901774,-1.039912 2.014952,-2.279737 l 2.023959,-2.254228 h 1.352235 c 0.74373,0 1.352236,0.007 1.352236,0.01549 0,0.0085 -0.933036,1.054087 -2.073413,2.323486 -1.140378,1.269398 -2.082556,2.322789 -2.093729,2.340868 -0.01175,0.01902 1.013803,0.760304 2.433517,1.75898 1.843416,1.296723 2.449897,1.738634 2.438017,1.776456 -0.01727,0.05498 -2.384713,8.125247 -2.469316,8.417534 -0.02861,0.09883 -0.06156,0.177885 -0.07323,0.17568 -0.01167,-0.0022 -0.562626,-0.03621 -1.224345,-0.07558 z"
       id="path2865" />
    <path
       style="fill:none;stroke:#291406;stroke-width:0.1;stroke-linecap:butt;stroke-linejoin:miter;stroke-opacity:1;stroke-miterlimit:4;stroke-dasharray:none"
       d="M 13.569856,6.5135315 8.9935144,6.0325047 13.015184,1.524699"
       id="path3111" />
    <path
       style="fill:none;stroke:#854114;stroke-width:0.2;stroke-linecap:butt;stroke-linejoin:miter;stroke-miterlimit:4;stroke-dasharray:none;stroke-opacity:1"
       d="M 16.490725,6.6483333 21.067066,6.1673065 16.581358,1.2396561"
       id="path3111-4"
       sodipodi:nodetypes="ccc" />
    <path
       style="fill:none;stroke:#854114;stroke-width:0.2;stroke-linecap:butt;stroke-linejoin:miter;stroke-opacity:1;stroke-miterlimit:4;stroke-dasharray:none"
       d="m 13.015184,1.524699 2.010835,2.5190679 1.555339,-2.8041108"
       id="path3399" />
    <path
       style="fill:#854114;fill-opacity:1;stroke:#854114;stroke-width:0.292;stroke-miterlimit:4;stroke-dasharray:none;stroke-opacity:1"
       d="M 17.875,13.8125 C 17.66875,13.76002 17.262703,13.710423 16.972673,13.702289 16.58391,13.691389 16.462448,13.642929 16.510429,13.517898 16.581236,13.333375 13.88731,6.7150245 13.647008,6.4831414 13.566154,6.4051191 12.571875,6.2453516 11.4375,6.1281024 10.303125,6.0108531 9.36742,5.9059395 9.3581555,5.894961 9.3421672,5.8760146 12.521048,2.3078295 12.863559,1.9602645 c 0.13375,-0.1357236 0.340195,0.057865 1.172231,1.0992329 l 1.009891,1.2639683 0.775856,-1.3922026 0.775857,-1.3922026 0.410641,0.4179698 C 17.233888,2.1869136 18.155856,3.190625 19.056854,4.1875 L 20.695031,6 20.222516,6.081015 c -0.259884,0.044558 -1.21571,0.1531584 -2.124059,0.2413336 -0.913599,0.088685 -1.673188,0.2200435 -1.699986,0.293985 C 16.371826,6.6898501 16.959806,8.2125 17.705092,10 c 0.745286,1.7875 1.355592,3.337187 1.356237,3.44375 0.0027,0.449237 -0.390133,0.571347 -1.186329,0.36875 z"
       id="path3554" />
    <path
       style="fill:#82734f;fill-opacity:1;stroke:#854114;stroke-width:0.533333;stroke-miterlimit:4;stroke-dasharray:none;stroke-opacity:1"
       id="path8669"
       d="m 16.710706,13.9984 c -0.0071,-7.09e-4 -0.01435,-1.38e-4 -0.02116,-0.0021 -0.02426,-0.0071 -0.07988,-0.03429 -0.09734,-0.0434 -0.05969,-0.03114 -0.110909,-0.06617 -0.163999,-0.107091 -0.01349,-0.01574 -0.07631,-0.04966 -0.08454,-0.06981 -0.01649,-0.04043 0.03332,-0.07087 0.05642,-0.09039 0.01729,-0.01195 0.03457,-0.0239 0.05186,-0.03585 0,0 -0.0013,-1.29e-4 -0.0013,-1.29e-4 v 0 c -0.01729,0.01195 -0.03457,0.02391 -0.05186,0.03586 -0.02319,0.01963 -0.07292,0.05008 -0.05642,0.09061 0.0082,0.02014 0.07105,0.05411 0.08454,0.06983 0.05309,0.04093 0.104305,0.07597 0.164002,0.107119 0.0173,0.009 0.07321,0.03637 0.09735,0.04344 0.0068,0.002 0.01411,0.0014 0.02116,0.0021 0,0 0.0013,-2.09e-4 0.0013,-2.09e-4 z" />
  </g>
</svg>
