<svg width="32" height="32" version="1.1" id="svg5" xmlns="http://www.w3.org/2000/svg"><g id="layer2"><path style="fill:none;stroke:#000;stroke-width:1px;stroke-linecap:butt;stroke-linejoin:miter;stroke-opacity:1" d="m16.866 31.148 2.627-8.953-4.879-3.431 4.718-5.254-2.841-6.862 4.576-.48-4.486-4.928" id="path4012"/></g><g id="layer4"><circle style="fill:#e2e9f7;fill-opacity:1;stroke-width:1.53974" id="path31" cx="16" cy="16.152" r="16"/></g><g id="layer3"><circle style="fill:#27282a;fill-opacity:1;stroke-width:1.44351" id="path31-8" cx="16" cy="16.152" r="15"/><path style="fill:none;stroke:#201808;stroke-width:1px;stroke-linecap:butt;stroke-linejoin:miter;stroke-opacity:1" d="m17.26 31.096 2.582-9.166-4.702-3.166 4.54-5.43-2.929-6.509 4.842-.48-4.84-5.105" id="path4127"/></g><g id="layer1"><path style="fill:none;stroke:#291406;stroke-width:.1;stroke-linecap:butt;stroke-linejoin:miter;stroke-miterlimit:4;stroke-dasharray:none;stroke-opacity:1" d="m13.945 31.013 2.627-8.953-4.878-3.43 4.717-5.254-2.841-6.862" id="path2134"/><path style="fill:none;stroke:#854114;stroke-width:.2;stroke-linecap:butt;stroke-linejoin:miter;stroke-miterlimit:4;stroke-dasharray:none;stroke-opacity:1" d="m16.866 31.148 2.627-8.953-4.879-3.431 4.718-5.254-2.841-6.862" id="path2134-3"/><path style="fill:none;stroke:#854114;stroke-width:.220065;stroke-linecap:butt;stroke-linejoin:miter;stroke-miterlimit:4;stroke-dasharray:none;stroke-opacity:1" d="m16.91 31.008-2.916-.164" id="path2340"/><path style="fill:#854114;fill-opacity:1;stroke:#854114;stroke-width:.533;stroke-miterlimit:4;stroke-dasharray:none;stroke-opacity:1" d="M15.578 30.811c-.662-.04-1.253-.076-1.315-.082l-.112-.01 1.278-4.357c.994-3.388 1.27-4.362 1.237-4.38a434.922 434.922 0 0 1-4.769-3.37c-.005-.014.902-1.04 2.015-2.28l2.024-2.254h1.352c.744 0 1.353.007 1.353.016 0 .008-.933 1.054-2.074 2.323a369.826 369.826 0 0 0-2.094 2.341c-.011.019 1.014.76 2.434 1.759 1.843 1.297 2.45 1.739 2.438 1.776l-2.47 8.418c-.028.099-.06.178-.073.176a142.96 142.96 0 0 0-1.224-.076z" id="path2865"/><path style="fill:none;stroke:#291406;stroke-width:.1;stroke-linecap:butt;stroke-linejoin:miter;stroke-opacity:1;stroke-miterlimit:4;stroke-dasharray:none" d="m13.57 6.514-4.576-.481 4.021-4.508" id="path3111"/><path style="fill:none;stroke:#854114;stroke-width:.2;stroke-linecap:butt;stroke-linejoin:miter;stroke-miterlimit:4;stroke-dasharray:none;stroke-opacity:1" d="m16.49 6.648 4.577-.48-4.486-4.928" id="path3111-4"/><path style="fill:none;stroke:#854114;stroke-width:.2;stroke-linecap:butt;stroke-linejoin:miter;stroke-opacity:1;stroke-miterlimit:4;stroke-dasharray:none" d="m13.015 1.525 2.011 2.519 1.555-2.804" id="path3399"/><path style="fill:#854114;fill-opacity:1;stroke:#854114;stroke-width:.292;stroke-miterlimit:4;stroke-dasharray:none;stroke-opacity:1" d="M17.875 13.813a5.074 5.074 0 0 0-.902-.11c-.39-.012-.51-.06-.463-.185.071-.185-2.623-6.803-2.863-7.035-.08-.078-1.075-.238-2.21-.355-1.134-.117-2.07-.222-2.079-.233-.016-.019 3.163-3.587 3.506-3.935.133-.135.34.058 1.172 1.1l1.01 1.263.776-1.392.775-1.392.411.418c.226.23 1.148 1.234 2.049 2.23L20.695 6l-.472.081a48.36 48.36 0 0 1-2.125.241c-.913.089-1.673.22-1.7.294-.026.074.562 1.597 1.307 3.384.745 1.788 1.356 3.337 1.356 3.444.003.449-.39.571-1.186.368z" id="path3554"/><path style="fill:#82734f;fill-opacity:1;stroke:#854114;stroke-width:.533333;stroke-miterlimit:4;stroke-dasharray:none;stroke-opacity:1" id="path8669" d="M16.71 13.998c-.006 0-.014 0-.02-.002a1.086 1.086 0 0 1-.261-.15c-.014-.016-.077-.05-.085-.07-.017-.04.033-.07.056-.09l.052-.036h-.001l-.052.035c-.023.02-.073.05-.057.091.009.02.071.054.085.07a1.086 1.086 0 0 0 .261.15l.021.003h.002z"/></g></svg>